# xmcd
#
# Track frame offsets:
#	150
#	14598
#	26922
#	42886
#	59123
#	77131
#	91929
#	107770
#	130385
#	145472
#	162936
#	178422
#	194058
#	209169
#	222568
#	241135
#	255906
#	273934
#	285874
#	305841
#	313424
#	328432
#
# Disc length: 4568 seconds
#
# Revision: 0
# Processed by: cddbd v1.5.2PL0 Copyright (c) Steve Scherf et al.
# Submitted via: EasyCDDAExtractor 16.0.9.1
#
DISCID=6711d616
DTITLE=Олег Митяев - Российские барды 14
DYEAR=2010
DGENRE=Ballad
TTITLE0=Таганай
TTITLE1=В осеннем парке
TTITLE2=Соседка
TTITLE3=Француженка
TTITLE4=Кандалакша
TTITLE5=За полярным кругом
TTITLE6=Письмо из Африки
TTITLE7=Крепитесь, люди, скоро лето!
TTITLE8=Лето - это маленькая жизнь
TTITLE9=Царица Непала
TTITLE10=Я сбежал
TTITLE11=Август
TTITLE12=Женщина с планеты Земля
TTITLE13=Песня для старшей дочери
TTITLE14=Прогноз
TTITLE15=Санкт-Петербург
TTITLE16=Сахалин
TTITLE17=Сестра милосердия
TTITLE18=Светлое прошлое
TTITLE19=Кино
TTITLE20=Вот тебе и раз
TTITLE21=Как здорово
EXTD=Eieeaeoey «?inneeneea aa?au». Aene ?14 (Ieaa Ieoyaa).\n\nIocuea, neiaa: I
EXTD=eaa Ieoyaa (1 - 22).\n\n(C) I. Ieoyaa, 2010 - 3, 4, 8, 9, 10, 22 - ii eeoa
EXTD=icee III «Ienoa?ey ?aei?an», 2010.\n(P) OOO «Oieuei Iocuea», 2010.\n(P) O
EXTD=OO «?IA», 2010.\n(P) «Ecaaoaeuneee Aii «Eiiniiieuneay i?aaaa», 2010.\n
EXTT0=
EXTT1=
EXTT2=
EXTT3=
EXTT4=
EXTT5=
EXTT6=
EXTT7=
EXTT8=
EXTT9=
EXTT10=
EXTT11=
EXTT12=
EXTT13=
EXTT14=
EXTT15=
EXTT16=
EXTT17=
EXTT18=
EXTT19=
EXTT20=
EXTT21=
PLAYORDER=
